<?xml version="1.0" encoding="utf-8"?>
<!-- Generator: Adobe Illustrator 27.0.0, SVG Export Plug-In . SVG Version: 6.00 Build 0)  -->
<svg version="1.1" id="Layer_2" xmlns="http://www.w3.org/2000/svg" xmlns:xlink="http://www.w3.org/1999/xlink" x="0px" y="0px"
	 viewBox="0 0 62.8 61.5" style="enable-background:new 0 0 62.8 61.5;" xml:space="preserve">
<style type="text/css">
	.st0{fill:#4573A2;}
</style>
<path d="M24.9,43.8c0-5.3-3.5-6.9-3.5-6.9c-1.8-0.8-4.8-1.1-7.9-1.2h-0.1c-3.1,0-6.2,0.4-7.9,1.2c0,0-3.5,1.6-3.5,6.9
	c0,1.2,0,2.7,0,4.2c0.1,5.2,1,10.3,5.8,11.6c2.2,0.6,4.1,0.7,5.7,0.6c2.8-0.2,4.3-1,4.3-1l-0.1-2c0,0-2,0.6-4.2,0.6
	c-2.2-0.1-4.5-0.2-4.9-3c0-0.3-0.1-0.5,0-0.8c0,0,2.2,0.5,4.9,0.7c1.7,0.1,3.3-0.1,4.9-0.3c3.1-0.4,5.8-2.3,6.1-4
	C25,47.7,24.9,43.8,24.9,43.8L24.9,43.8z M20.8,50.7h-2.6v-6.3c0-1.3-0.6-2-1.7-2c-1.2,0-1.8,0.8-1.8,2.4v3.4h-2.5v-3.4
	c0-1.6-0.6-2.4-1.8-2.4c-1.1,0-1.7,0.7-1.7,2v6.3H6.2v-6.4c0-1.3,0.3-2.4,1-3.1c0.7-0.8,1.6-1.2,2.7-1.2c1.3,0,2.3,0.5,3,1.5
	l0.6,1.1l0.6-1.1c0.7-1,1.6-1.5,3-1.5c1.1,0,2,0.4,2.7,1.2c0.7,0.8,1,1.8,1,3.1V50.7z"/>
<g>
	<path class="st0" d="M49.3,35.3c2.5,0,5,0.8,7.1,2.2c2,1.4,3.6,3.3,4.6,5.6c1.7,4,1.2,8.5-1.2,12c-1.4,2-3.3,3.6-5.6,4.6
		c-4,1.7-8.5,1.2-12-1.2c-2-1.4-3.6-3.3-4.6-5.6c-1.7-4-1.2-8.5,1.2-12c1.4-2,3.3-3.6,5.6-4.6C45.9,35.7,47.6,35.3,49.3,35.3z
		 M49.3,34.5c-7.5,0-13.5,6-13.5,13.5c0,7.5,6,13.5,13.5,13.5c7.5,0,13.5-6,13.5-13.5C62.8,40.6,56.8,34.5,49.3,34.5z"/>
	<path class="st0" d="M38.5,48c0,4.3,2.5,8.2,6.3,10.1l-5.4-14.7C38.9,44.9,38.5,46.4,38.5,48z M57.4,47.4c0-1.4-0.5-2.3-0.9-3.1
		c-0.4-0.8-1.1-1.7-1.1-2.6s0.8-2,1.9-2h0.1c-4.6-4.2-11.7-3.9-15.9,0.7c-0.4,0.4-0.8,0.9-1.1,1.4h0.7c1.2,0,3-0.1,3-0.1
		c0.6,0,0.7,0.9,0.1,0.9c0,0-0.6,0.1-1.3,0.1L47,54.9l2.5-7.4l-1.8-4.8c-0.6,0-1.2-0.1-1.2-0.1c-0.6,0-0.5-1,0.1-0.9
		c0,0,1.9,0.1,3,0.1c1.1,0,3-0.1,3-0.1c0.6,0,0.7,0.9,0.1,0.9c0,0-0.6,0.1-1.3,0.1l4.1,12.1l1.2-3.7C57.1,49.5,57.4,48.4,57.4,47.4
		L57.4,47.4z M50,49l-3.4,9.8c2.3,0.7,4.7,0.6,6.9-0.2l-0.1-0.1L50,49z M59.6,42.6c0.1,0.4,0.1,0.8,0.1,1.2c0,1.1-0.2,2.4-0.9,4
		l-3.4,9.9C60.7,54.7,62.6,48,59.6,42.6z"/>
</g>
<path d="M60.3,9.3c0-5.3-3.5-6.9-3.5-6.9c-1.8-0.8-4.8-1.1-7.9-1.2h-0.1c-3.1,0-6.2,0.4-7.9,1.2c0,0-3.5,1.6-3.5,6.9
	c0,1.2,0,2.7,0,4.2c0.1,5.2,1,10.3,5.8,11.6c2.2,0.6,4.1,0.7,5.7,0.6c2.8-0.2,4.3-1,4.3-1l-0.1-2c0,0-2,0.6-4.2,0.6
	c-2.2-0.1-4.5-0.2-4.9-3c0-0.3-0.1-0.5,0-0.8c0,0,2.2,0.5,4.9,0.7c1.7,0.1,3.3-0.1,4.9-0.3c3.1-0.4,5.8-2.3,6.1-4
	C60.4,13.2,60.3,9.3,60.3,9.3L60.3,9.3z M56.2,16.1h-2.6V9.9c0-1.3-0.6-2-1.7-2c-1.2,0-1.8,0.8-1.8,2.4v3.4h-2.5v-3.4
	c0-1.6-0.6-2.4-1.8-2.4c-1.1,0-1.7,0.7-1.7,2v6.3h-2.6V9.7c0-1.3,0.3-2.4,1-3.1c0.7-0.8,1.6-1.2,2.7-1.2c1.3,0,2.3,0.5,3,1.5L48.9,8
	l0.6-1.1c0.7-1,1.6-1.5,3-1.5c1.1,0,2,0.4,2.7,1.2c0.7,0.8,1,1.8,1,3.1V16.1z"/>
<g>
	<path class="st0" d="M13.5,0.8c2.5,0,5,0.8,7.1,2.2c2,1.4,3.6,3.3,4.6,5.6c1.7,4,1.2,8.5-1.2,12c-1.4,2-3.3,3.6-5.6,4.6
		c-4,1.7-8.5,1.2-12-1.2c-2-1.4-3.6-3.3-4.6-5.6c-1.7-4-1.2-8.5,1.2-12c1.4-2,3.3-3.6,5.6-4.6C10.1,1.1,11.8,0.8,13.5,0.8z M13.5,0
		C6,0,0,6,0,13.5C0,21,6,27,13.5,27C21,27,27,21,27,13.5C27,6,21,0,13.5,0z"/>
	<path class="st0" d="M2.7,13.5c0,4.3,2.5,8.2,6.3,10.1L3.7,8.9C3.1,10.4,2.7,11.9,2.7,13.5z M21.6,12.9c0-1.4-0.5-2.3-0.9-3.1
		c-0.4-0.8-1.1-1.7-1.1-2.6s0.8-2,1.9-2h0.1C17,1,9.9,1.3,5.7,5.9C5.3,6.3,4.9,6.8,4.6,7.3h0.7c1.2,0,3-0.1,3-0.1
		C8.9,7.1,9,8,8.4,8.1c0,0-0.6,0.1-1.3,0.1l4.1,12.2l2.5-7.4l-1.8-4.8c-0.6,0-1.2-0.1-1.2-0.1c-0.6,0-0.5-1,0.1-0.9
		c0,0,1.9,0.1,3,0.1s3-0.1,3-0.1c0.6,0,0.7,0.9,0.1,0.9c0,0-0.6,0.1-1.3,0.1l4.1,12.1l1.2-3.7C21.2,15,21.6,13.9,21.6,12.9
		L21.6,12.9z M14.2,14.5l-3.4,9.8c2.3,0.7,4.7,0.6,6.9-0.2L17.6,24L14.2,14.5z M23.8,8.1c0.1,0.4,0.1,0.8,0.1,1.2
		c0,1.1-0.2,2.4-0.9,4l-3.4,9.9C24.9,20.2,26.8,13.4,23.8,8.1z"/>
</g>
</svg>
